<?xml version="1.0" standalone="no"?>
<!DOCTYPE svg PUBLIC "-//W3C//DTD SVG 20010904//EN"
 "http://www.w3.org/TR/2001/REC-SVG-20010904/DTD/svg10.dtd">
<svg version="1.0" xmlns="http://www.w3.org/2000/svg"
 width="512.000000pt" height="512.000000pt" viewBox="0 0 512.000000 512.000000"
 preserveAspectRatio="xMidYMid meet">
<metadata>
Created by potrace 1.14, written by Peter Selinger 2001-2017
</metadata>
<g transform="translate(0.000000,512.000000) scale(0.100000,-0.100000)"
fill="#000000" stroke="none">
<path d="M2140 4571 c-264 -68 -530 -231 -679 -417 -68 -84 -144 -230 -166
-319 -22 -91 -33 -245 -27 -396 l5 -137 -42 -58 c-46 -64 -48 -76 -24 -136 41
-106 135 -222 186 -232 32 -6 33 -8 44 -77 9 -56 20 -84 50 -127 51 -75 84
-93 184 -99 l80 -6 -6 -36 c-3 -20 -19 -79 -34 -131 -22 -72 -33 -96 -51 -104
-20 -9 -22 -15 -16 -59 3 -33 1 -58 -9 -76 -25 -47 -129 -138 -195 -171 -94
-47 -275 -176 -327 -234 -92 -102 -116 -165 -174 -450 -26 -130 -42 -240 -45
-311 -3 -60 -15 -159 -26 -218 -23 -126 -20 -153 19 -161 43 -9 3395 -12 3420
-3 30 11 33 26 40 157 4 87 2 133 -11 190 -9 41 -25 140 -36 218 -22 162 -26
178 -79 352 -22 69 -53 172 -71 230 -39 126 -79 196 -157 272 -68 67 -140 103
-240 120 -53 8 -74 17 -78 29 -3 9 -23 28 -44 42 -21 14 -60 49 -87 78 -27 30
-79 83 -116 119 -36 36 -83 91 -103 123 -20 31 -45 63 -55 70 -15 9 -20 23
-20 54 0 78 -20 143 -54 175 -25 25 -27 29 -7 18 22 -11 23 -11 18 11 -3 13
-9 52 -13 86 l-6 62 105 50 c62 29 111 58 120 72 9 13 27 77 42 142 14 65 30
129 35 143 11 28 12 126 1 164 -7 27 -10 28 -91 17 -30 -4 -59 -7 -64 -7 -5 1
-12 -3 -15 -8 -3 -5 -15 11 -27 37 l-21 47 41 1 c142 2 146 3 146 21 0 9 -12
41 -25 71 -16 35 -28 81 -32 129 -7 84 -21 107 -88 141 -26 14 -59 21 -96 21
l-57 0 -32 63 c-117 225 -290 365 -540 433 -132 36 -340 43 -450 15z m420 -98
c124 -24 222 -78 318 -175 45 -46 96 -103 114 -128 18 -25 43 -56 56 -70 l22
-25 -27 -3 c-22 -3 -33 3 -48 24 -34 49 -158 174 -208 211 -120 88 -377 124
-580 81 -218 -46 -467 -258 -554 -470 -37 -92 -101 -353 -109 -445 -3 -46 -10
-83 -14 -83 -15 0 -19 92 -10 193 31 325 171 580 424 770 174 132 367 169 616
120z m-70 -244 c69 -11 164 -56 201 -95 26 -27 33 -23 -101 -54 -252 -58 -436
-134 -613 -254 -91 -61 -252 -191 -291 -235 -37 -41 -64 -13 -51 52 17 78 129
262 202 333 124 121 326 228 481 254 68 11 99 11 172 -1z m549 -195 c36 -7 42
-24 9 -24 -25 0 -54 -4 -78 -12 -35 -12 -157 -38 -175 -38 -21 0 -248 -66
-325 -94 -25 -9 -76 -27 -115 -40 -38 -13 -90 -33 -115 -43 -25 -11 -65 -23
-89 -27 -44 -7 -45 -7 -27 13 19 21 229 128 306 156 258 94 483 134 609 109z
m16 -164 c-11 -5 -96 -25 -189 -45 -92 -20 -237 -56 -321 -80 -85 -25 -162
-45 -173 -45 -11 0 -36 -7 -55 -15 -20 -8 -44 -15 -54 -15 -59 0 171 94 355
144 70 20 163 41 207 47 44 6 82 13 84 15 2 2 41 4 85 3 57 0 75 -3 61 -9z
m36 -152 c87 -120 113 -214 113 -408 0 -117 -3 -152 -17 -182 -9 -21 -21 -38
-25 -38 -17 0 -55 218 -62 355 -8 145 -19 195 -44 195 -9 0 -12 7 -9 19 4 17
-23 38 -35 26 -3 -3 0 -5 6 -5 7 0 12 -11 12 -25 0 -14 5 -25 10 -25 6 0 10
-4 10 -9 0 -5 -9 -7 -20 -4 -14 4 -20 0 -20 -10 0 -10 6 -13 21 -10 20 6 20 4
-5 -44 -14 -28 -22 -53 -19 -57 4 -3 19 -6 35 -6 15 0 28 -4 28 -10 0 -5 -9
-10 -20 -10 -34 0 -67 -21 -83 -53 -10 -20 -16 -25 -16 -15 -1 9 8 33 20 52
24 41 10 49 -18 10 l-19 -25 -2 23 c-6 58 -1 103 13 118 8 9 13 19 10 22 -7 7
32 83 51 99 8 6 14 20 14 29 0 17 12 27 32 29 5 1 22 -18 39 -41z m-1501 -335
c-20 -68 -40 -86 -40 -37 0 33 17 64 35 64 10 0 12 -7 5 -27z m804 -13 c25
-10 63 -31 83 -44 l37 -26 -38 5 c-25 3 -35 1 -31 -6 4 -6 13 -8 21 -5 7 3 16
1 19 -4 3 -5 12 -7 20 -3 8 3 15 0 15 -6 0 -6 -3 -11 -7 -11 -5 0 -9 -11 -9
-25 -1 -14 3 -25 9 -25 6 0 4 -6 -5 -12 -20 -17 -30 -46 -18 -53 6 -4 10 -13
10 -21 0 -12 -6 -11 -29 6 -37 26 -105 50 -142 50 -46 0 -44 19 3 26 42 7 42
8 15 17 -15 5 -27 12 -27 17 0 9 -35 23 -60 24 -20 1 -20 29 0 38 10 4 6 7
-12 7 -29 1 -46 16 -26 24 8 3 6 6 -4 6 -10 1 -18 4 -18 9 0 4 19 6 41 4 27
-3 39 -1 35 6 -16 26 58 28 118 2z m-493 -227 c6 -16 13 -42 16 -59 l5 -31
-63 -7 c-35 -3 -79 -9 -96 -12 -34 -7 -42 2 -59 71 -5 22 -3 25 22 25 16 1 52
9 79 20 70 26 84 25 96 -7z m394 -48 c18 -63 49 -90 92 -82 26 5 26 4 8 -9
-29 -22 -61 -17 -85 14 -39 49 -65 132 -41 132 5 0 17 -25 26 -55z m826 -130
c24 -39 25 -60 2 -50 -10 4 -24 8 -30 8 -7 0 -13 5 -13 10 0 5 -6 4 -13 -2 -8
-6 -17 -7 -21 -3 -5 4 -7 0 -6 -8 5 -30 0 -48 -14 -53 -8 -3 -16 2 -19 14 -4
14 -1 19 11 17 13 -2 16 3 14 22 -2 14 -8 27 -13 28 -5 2 -9 11 -9 19 0 13 4
11 19 -5 l18 -22 -1 34 c0 19 -4 32 -8 29 -10 -5 -11 11 -2 20 11 11 66 -26
85 -58z m-216 9 c10 3 21 -13 34 -50 30 -79 29 -85 -17 -78 -35 5 -42 2 -86
-38 -42 -38 -48 -48 -51 -90 -1 -26 1 -45 6 -42 11 6 7 -25 -5 -44 -4 -7 -16
-10 -27 -7 -11 4 -26 0 -35 -9 -8 -9 -22 -16 -30 -16 -16 0 -20 -65 -5 -74 5
-3 7 -18 5 -33 -4 -36 3 -46 46 -69 30 -16 56 -19 175 -18 l140 0 70 42 70 42
3 -26 c2 -15 -2 -39 -9 -53 -25 -49 -86 -136 -118 -167 -58 -56 -181 -83 -268
-58 -22 7 -43 10 -46 7 -7 -6 -61 28 -102 65 -7 6 -17 12 -20 12 -4 0 -15 10
-25 22 -14 18 -20 20 -33 10 -12 -11 -16 -7 -21 22 -5 28 -10 34 -24 29 -14
-5 -15 -4 -6 8 8 10 8 21 0 42 -7 15 -14 25 -17 22 -9 -8 -2 72 8 89 5 8 24
27 43 41 19 14 35 34 36 43 1 29 51 129 68 135 9 4 16 16 16 27 0 11 5 20 10
20 6 0 10 6 10 14 0 7 7 19 15 26 8 7 13 22 11 34 -2 13 4 25 18 33 11 7 15
12 9 13 -7 0 -13 5 -13 10 0 12 32 41 42 38 3 -2 16 9 28 24 21 27 22 27 52
12 16 -8 36 -13 43 -10z m255 -474 c0 -5 -5 -10 -11 -10 -5 0 -7 5 -4 10 3 6
8 10 11 10 2 0 4 -4 4 -10z m-752 -682 c7 -7 12 -19 12 -27 0 -11 -4 -10 -20
4 -21 19 -26 35 -12 35 4 0 13 -5 20 -12z m572 -12 c0 -22 -16 -36 -41 -36
-17 0 -10 48 9 53 30 8 32 7 32 -17z m567 18 c-3 -3 -12 -4 -19 -1 -8 3 -5 6
6 6 11 1 17 -2 13 -5z m20 -46 c-3 -7 -5 -2 -5 12 0 14 2 19 5 13 2 -7 2 -19
0 -25z m-67 7 c0 -8 6 -15 13 -16 9 0 9 -2 0 -5 -11 -5 -73 22 -73 31 0 3 14
5 30 5 20 0 30 -5 30 -15z m520 5 c22 -7 21 -8 -12 -9 -35 -1 -38 -3 -38 -30
0 -29 14 -42 38 -33 6 2 12 10 12 18 0 24 18 15 24 -12 7 -24 8 -25 20 -9 7
10 18 15 24 11 8 -5 6 -14 -8 -29 -25 -27 -81 -28 -110 -2 -22 20 -25 41 -10
79 10 27 18 29 60 16z m-1912 -37 c-10 -2 -26 -2 -35 0 -10 3 -2 5 17 5 19 0
27 -2 18 -5z m-895 -73 c-12 -5 -29 -22 -37 -37 -10 -19 -15 -23 -16 -11 0 21
38 58 59 57 10 0 8 -3 -6 -9z m364 -19 c10 -16 9 -18 -7 -14 -21 6 -36 33 -17
33 7 0 18 -9 24 -19z m-324 -15 c5 -13 -37 -66 -53 -66 -15 0 -19 14 -8 33 24
46 51 60 61 33z m2647 -101 c211 -74 313 -432 162 -567 -22 -19 -32 -23 -35
-14 -3 8 -2 17 3 22 12 14 40 119 40 151 -1 38 -15 12 -25 -45 -7 -46 -28 -93
-57 -131 l-18 -24 0 24 c0 13 9 47 20 76 47 125 45 275 -5 351 -56 84 -150
112 -243 72 -73 -32 -105 -72 -131 -167 -25 -93 -27 -180 -5 -242 30 -88 -10
-55 -45 37 -28 71 -26 105 8 201 15 45 27 81 25 81 -2 0 -18 -28 -35 -62 -30
-60 -31 -66 -26 -153 6 -101 27 -166 65 -195 14 -11 23 -22 21 -25 -11 -10
-63 52 -87 103 -23 52 -24 62 -19 169 6 132 24 179 91 243 59 56 83 72 141 92
62 22 100 22 155 3z m-2405 -45 c121 -69 161 -136 171 -284 6 -79 4 -102 -15
-157 -17 -52 -59 -119 -75 -119 -2 0 6 19 17 41 16 32 20 62 21 138 1 88 -2
103 -33 174 -43 101 -89 150 -160 171 -100 29 -176 13 -205 -43 -20 -38 -20
-47 -1 -31 16 13 21 0 6 -15 -5 -6 -19 -49 -30 -97 -17 -67 -20 -103 -15 -157
4 -39 10 -71 13 -71 3 0 7 -17 8 -38 l3 -37 -25 29 c-25 31 -46 77 -63 136
l-10 35 -1 -45 c-2 -64 27 -136 73 -181 42 -43 38 -50 -11 -20 -40 25 -79 92
-87 152 -10 70 10 143 80 286 67 134 78 147 149 166 50 14 134 -1 190 -33z
m1438 -30 c-7 -28 -13 -25 -13 6 0 14 4 23 9 20 5 -3 7 -15 4 -26z m-1408
-115 c58 -53 86 -167 71 -287 -7 -55 -45 -134 -53 -110 -3 7 1 19 7 27 7 8 16
54 21 101 8 74 6 94 -11 145 -10 33 -28 73 -40 88 -11 16 -20 33 -20 37 0 4
-8 17 -17 28 -17 20 -17 20 1 6 11 -8 30 -24 41 -35z m1509 -15 l21 -22 -22
11 c-12 6 -33 11 -46 11 -14 0 -30 6 -36 14 -21 25 58 11 83 -14z m630 6 c-3
-9 -10 -16 -15 -16 -6 0 -5 9 1 21 13 24 24 20 14 -5z m-1298 0 c10 -8 16 -18
11 -22 -4 -4 -13 -2 -19 4 -14 14 -98 16 -98 3 0 -5 -9 -7 -19 -4 -10 3 -29 0
-41 -7 -36 -19 -35 -3 1 19 41 25 135 29 165 7z m428 5 c4 -5 -3 -7 -14 -4
-23 6 -26 13 -6 13 8 0 17 -4 20 -9z m665 -6 c9 -9 -5 -11 -67 -7 -39 2 -60 8
-56 14 6 10 112 4 123 -7z m-2003 -56 c79 -76 86 -155 21 -226 -11 -13 -25
-23 -30 -23 -6 0 -2 9 7 19 10 11 15 24 12 29 -3 5 6 20 19 32 32 30 32 66 -1
115 -35 54 -70 78 -124 87 -45 7 -45 7 8 4 45 -3 59 -9 88 -37z m1544 31 c0
-5 -2 -10 -4 -10 -3 0 -8 5 -11 10 -3 6 -1 10 4 10 6 0 11 -4 11 -10z m477
-12 c-3 -8 -6 -5 -6 6 -1 11 2 17 5 13 3 -3 4 -12 1 -19z m378 12 c38 -15 62
-40 86 -94 39 -89 0 -187 -81 -203 l-35 -6 45 34 c53 41 77 95 66 151 -9 49
-63 102 -117 115 -34 8 -38 11 -17 12 15 0 38 -3 53 -9z m-820 -10 c3 -5 1
-10 -4 -10 -6 0 -11 5 -11 10 0 6 2 10 4 10 3 0 8 -4 11 -10z m700 -15 c-16
-13 -34 -24 -39 -25 -6 0 5 11 24 25 44 32 54 32 15 0z m-1801 -1 c22 -21 20
-27 -3 -14 -28 14 -94 12 -116 -3 -14 -11 -17 -22 -12 -45 8 -39 -10 -43 -19
-5 -9 34 5 55 47 70 48 17 85 16 103 -3z m396 -4 c0 -5 -5 -10 -11 -10 -5 0
-7 5 -4 10 3 6 8 10 11 10 2 0 4 -4 4 -10z m608 -55 l-6 -65 43 0 c55 0 85 24
95 76 l8 39 1 -41 c2 -60 -29 -85 -109 -89 l-61 -3 6 29 c4 16 8 48 10 72 5
52 4 47 11 47 4 0 4 -29 2 -65z m432 44 c0 -5 -12 -9 -27 -9 -26 0 -26 1 -8
14 20 14 35 12 35 -5z m-2116 -14 c-9 -14 -18 -25 -21 -25 -5 0 5 18 20 38 17
22 18 13 1 -13z m960 10 c3 -8 1 -15 -4 -15 -6 0 -10 7 -10 15 0 8 2 15 4 15
2 0 6 -7 10 -15z m56 5 c0 -5 -10 -10 -22 -10 -19 0 -20 2 -8 10 19 13 30 13
30 0z m1160 6 c0 -3 -4 -8 -10 -11 -5 -3 -10 -1 -10 4 0 6 5 11 10 11 6 0 10
-2 10 -4z m-1057 -93 c-10 -44 -27 -51 -124 -52 -61 -1 -67 1 -77 24 l-12 25
35 -14 c35 -15 131 -16 155 -1 12 8 10 53 -5 90 -6 14 -1 11 14 -8 19 -23 22
-33 14 -64z m624 60 c-3 -3 -11 -2 -17 2 -9 6 -9 10 1 16 14 8 27 -7 16 -18z
m-1028 -15 c0 -31 -1 -31 -10 -10 -5 13 -7 28 -3 33 10 16 14 9 13 -23z m301
2 c0 -11 -7 -20 -15 -20 -27 0 -18 30 13 39 1 1 2 -8 2 -19z m1080 0 c0 -13
-5 -18 -15 -14 -8 4 -15 12 -15 20 0 8 7 14 15 14 8 0 15 -9 15 -20z m70 -5
c0 -8 -4 -15 -10 -15 -5 0 -10 7 -10 15 0 8 5 15 10 15 6 0 10 -7 10 -15z
m589 -45 c0 -23 -1 -23 -9 -5 -5 11 -9 29 -9 40 -1 17 1 17 9 5 5 -8 9 -26 9
-40z m-2063 -6 c-2 -25 -9 -51 -16 -57 -10 -10 -10 -7 -1 11 8 14 8 22 1 22
-5 0 -10 -4 -10 -9 0 -6 -13 -18 -30 -27 -21 -13 -26 -20 -17 -26 7 -5 -2 -8
-22 -6 -30 3 -35 7 -36 30 0 18 3 24 9 18 31 -31 97 6 111 63 11 41 16 33 11
-19z m845 -17 c-12 -31 -52 -50 -90 -44 -23 4 -22 4 5 6 37 1 84 41 85 73 1
14 3 17 6 7 2 -8 -1 -28 -6 -42z m555 2 c4 -8 25 -9 60 -5 51 6 73 -5 38 -18
-40 -15 -147 8 -127 27 10 10 21 8 29 -4z m-2096 -44 c12 -25 33 -53 46 -64
30 -24 31 -36 2 -20 -40 21 -59 49 -72 102 -9 40 -1 33 24 -18z m2946 -16 c4
-27 1 -37 -15 -47 -20 -11 -21 -10 -21 21 0 18 5 38 12 45 9 9 9 12 -1 12 -7
0 -9 5 -5 11 10 16 24 -3 30 -42z m24 26 c0 -8 -4 -15 -10 -15 -5 0 -10 7 -10
15 0 8 5 15 10 15 6 0 10 -7 10 -15z m-503 -82 c12 -13 35 -23 50 -24 15 0 22
-3 15 -6 -35 -14 -95 25 -111 73 l-11 29 18 -25 c9 -14 27 -35 39 -47z m-2272
17 c-3 -5 -11 -10 -16 -10 -6 0 -7 5 -4 10 3 6 11 10 16 10 6 0 7 -4 4 -10z
m1120 -299 c-5 -4 -10 7 -24 64 -6 22 -11 49 -10 60 0 11 9 -11 19 -50 10 -38
17 -71 15 -74z m1126 104 c24 -14 41 -25 37 -25 -17 0 -88 33 -88 41 0 13 3
12 51 -16z m-911 -9 c14 -2 -17 -4 -68 -5 -51 0 -91 2 -89 7 5 6 99 6 157 -2z
m1098 -3 c-10 -2 -26 -2 -35 0 -10 3 -2 5 17 5 19 0 27 -2 18 -5z m-2425 -20
c-7 -2 -21 -2 -30 0 -10 3 -4 5 12 5 17 0 24 -2 18 -5z m648 -34 c23 -19 23
-20 2 -10 -29 15 -96 14 -111 -1 -9 -9 -12 -9 -12 0 0 34 86 43 121 11z m1104
-40 c13 -58 -19 -89 -91 -89 -48 0 -70 14 -83 52 l-12 33 28 -33 c24 -28 34
-33 63 -30 28 2 38 10 52 38 13 26 15 36 5 42 -9 6 -9 8 1 8 7 0 10 4 7 10 -3
5 0 7 9 4 8 -3 18 -19 21 -35z m-1060 -33 c5 -22 1 -44 -9 -65 -14 -27 -22
-31 -54 -30 -27 1 -31 3 -12 6 38 7 51 22 44 52 -4 20 -3 23 5 11 9 -13 11
-13 11 1 0 19 -19 39 -38 39 -12 0 -12 -3 -1 -17 13 -17 13 -17 -6 -1 -13 11
-25 14 -34 8 -20 -11 -41 -1 -34 16 4 12 16 13 52 8 25 -4 50 -12 54 -18 5 -6
7 -2 4 12 -3 12 -1 20 4 17 4 -3 11 -21 14 -39z m333 -4 c3 -11 0 -12 -16 -3
-11 6 -37 11 -56 11 -38 0 -40 -4 -49 -75 -2 -17 -5 -8 -6 22 0 33 3 53 12 57
25 10 110 1 115 -12z m134 -68 c7 -5 29 -14 48 -20 34 -12 34 -12 7 -13 -51
-2 -83 30 -101 99 -3 14 3 6 13 -16 11 -23 25 -46 33 -50z m-1195 29 c2 -6 -3
-13 -12 -17 -11 -4 -14 -2 -9 7 5 9 4 9 -7 0 -18 -18 -59 -16 -59 1 0 22 80
30 87 9z m608 -42 c19 -11 19 -12 1 -9 -10 2 -25 14 -33 28 -10 17 -11 20 -2
9 8 -8 23 -21 34 -28z m560 -1 c10 -11 16 -20 13 -20 -3 0 -13 9 -23 20 -10
11 -16 20 -13 20 3 0 13 -9 23 -20z m1465 0 c0 -11 -4 -20 -9 -20 -5 0 -7 9
-4 20 3 11 7 20 9 20 2 0 4 -9 4 -20z"/>
<path d="M2602 2478 c2 -6 15 -15 28 -20 23 -9 23 -8 5 12 -20 22 -39 27 -33
8z"/>
<path d="M3546 1365 c-3 -9 -6 -22 -5 -28 0 -7 5 -1 10 12 5 13 8 26 5 28 -2
2 -6 -3 -10 -12z"/>
</g>
</svg>
